<svg width="133" height="166" viewBox="0 0 133 166" fill="none" xmlns="http://www.w3.org/2000/svg">
<path d="M66.9155 59.5359C65.7137 60.1174 64.3597 60.3088 63.0435 60.0833C61.7272 59.8578 60.5146 59.2267 59.5756 58.2785L59.4384 58.1415C55.348 58.3274 51.4688 60.0083 48.5388 62.8643C45.6088 65.7204 43.8326 69.5522 43.5482 73.6309C43.2637 77.7095 44.4908 81.7502 46.996 84.9842C49.5012 88.2182 53.1097 90.4197 57.1348 91.17C61.1599 91.9202 65.3208 91.1667 68.8258 89.053C72.3307 86.9392 74.9351 83.6126 76.1435 79.7062C77.3518 75.7997 77.0797 71.5861 75.3789 67.8669C73.6782 64.1478 70.6675 61.1827 66.9197 59.5359H66.9155ZM68.578 70.55H64.4218V68.475C64.4218 67.9247 64.2028 67.3969 63.8131 67.0078C63.4234 66.6186 62.8948 66.4 62.3436 66.4V72.625C63.9971 72.625 65.5828 73.2809 66.752 74.4483C67.9212 75.6157 68.578 77.199 68.578 78.85V80.925C68.578 82.576 67.9212 84.1593 66.752 85.3267C65.5828 86.4942 63.9971 87.15 62.3436 87.15V89.225H58.1874V87.15C56.5339 87.15 54.9482 86.4942 53.779 85.3267C52.6099 84.1593 51.953 82.576 51.953 80.925V78.85H56.1093V80.925C56.1093 81.4753 56.3282 82.0031 56.7179 82.3923C57.1077 82.7814 57.6362 83 58.1874 83V76.775C56.5339 76.775 54.9482 76.1192 53.779 74.9517C52.6099 73.7843 51.953 72.201 51.953 70.55V68.475C51.953 66.824 52.6099 65.2407 53.779 64.0733C54.9482 62.9058 56.5339 62.25 58.1874 62.25V60.175H62.3436V62.25C63.9971 62.25 65.5828 62.9058 66.752 64.0733C67.9212 65.2407 68.578 66.824 68.578 68.475V70.55Z" fill="#A1FE04"/>
<path d="M43.6801 62.25H26.7538C26.3794 63.6844 25.6285 64.993 24.5787 66.0409C23.5288 67.0889 22.2179 67.8382 20.7812 68.2115V81.1885C22.2179 81.5618 23.5288 82.3111 24.5787 83.3591C25.6285 84.407 26.3794 85.7156 26.7538 87.15H43.6801C40.958 83.5686 39.4845 79.196 39.4845 74.7C39.4845 70.204 40.958 65.8314 43.6801 62.25Z" fill="#A1FE04"/>
<path d="M56.1094 68.475V70.55C56.1094 71.1003 56.3283 71.6281 56.718 72.0172C57.1078 72.4064 57.6363 72.625 58.1875 72.625V66.4C57.6363 66.4 57.1078 66.6186 56.718 67.0078C56.3283 67.3969 56.1094 67.9247 56.1094 68.475Z" fill="#A1FE04"/>
<path d="M62.3438 83C62.8949 83 63.4235 82.7814 63.8132 82.3922C64.2029 82.0031 64.4219 81.4753 64.4219 80.925V78.85C64.4219 78.2997 64.2029 77.7719 63.8132 77.3828C63.4235 76.9936 62.8949 76.775 62.3438 76.775V83Z" fill="#A1FE04"/>
<path d="M28.7446 27.8984L32.558 33.615L46.5375 39.5972C46.7804 39.7012 47.0012 39.8505 47.188 40.0371L62.5225 55.3486C62.8485 55.6744 63.2641 55.8962 63.7166 55.986C64.169 56.0757 64.638 56.0293 65.064 55.8526C65.49 55.6759 65.8539 55.3769 66.1096 54.9935C66.3652 54.6101 66.5011 54.1595 66.5 53.6989C66.529 53.0797 66.3235 52.4722 65.9244 51.9974L52.4685 36.6424C52.1789 36.312 52.0017 35.8983 51.9625 35.4609C51.9233 35.0235 52.0241 34.585 52.2503 34.2085L58.1875 24.3252V20.75H62.3438V24.9C62.3436 25.2765 62.2409 25.6459 62.0466 25.9686L60.4755 28.5831L68.123 38.1281C68.4178 38.4963 68.5783 38.9536 68.5781 39.425V47.725H72.7344V35.7647L60.8704 12.0703L43.304 6.22501H6.23438V23.1674L27.3876 27.0103C27.6621 27.0592 27.9239 27.1631 28.1571 27.3157C28.3903 27.4684 28.5902 27.6666 28.7446 27.8984Z" fill="#A1FE04"/>
<path d="M76.8512 87.15H93.7775C94.1519 85.7156 94.9028 84.407 95.9527 83.3591C97.0025 82.3111 98.3134 81.5618 99.7501 81.1885V68.2115C98.3134 67.8382 97.0025 67.0889 95.9527 66.0409C94.9028 64.993 94.1519 63.6844 93.7775 62.25H76.8491C79.5719 65.8312 81.0458 70.2038 81.0458 74.7C81.0458 79.1962 79.574 83.5688 76.8512 87.15Z" fill="#A1FE04"/>
<path d="M86.4085 99.8614L81.5582 105.916C81.2274 106.328 81.0471 106.841 81.0469 107.369V107.649C81.0467 108.109 81.1831 108.559 81.4391 108.942C81.6951 109.325 82.059 109.623 82.4848 109.799C82.9107 109.975 83.3793 110.021 83.8314 109.932C84.2835 109.842 84.6987 109.62 85.0245 109.294L92.0465 102.283L94.9849 105.217L87.9629 112.228C87.2006 112.991 86.2592 113.552 85.2244 113.858C84.1897 114.165 83.0946 114.208 82.0388 113.984C80.9831 113.76 80.0002 113.276 79.1798 112.576C78.3594 111.876 77.7275 110.982 77.3416 109.975H35.3282C34.4984 109.975 33.6876 110.223 33.0002 110.687C32.3128 111.151 31.7803 111.81 31.4712 112.579L86.8927 126.415L98.5967 118.624C98.9386 118.397 99.3397 118.276 99.7501 118.275H114.297V97.525H91.2755C90.3403 97.5226 89.4166 97.7316 88.5738 98.1362C87.7309 98.5409 86.9907 99.1307 86.4085 99.8614Z" fill="#A1FE04"/>
<path d="M126.766 93.375H118.453V122.425H126.766V93.375Z" fill="#A1FE04"/>
<path d="M83.1624 97.2677C84.1338 96.0506 85.3679 95.0684 86.7728 94.3943C88.1776 93.7203 89.7168 93.3718 91.2754 93.375H108.062V51.875H70.4152C70.5678 52.4155 70.6488 52.9735 70.6562 53.535C70.6539 54.5233 70.4355 55.4991 70.0162 56.3943C70.9551 56.8931 71.8541 57.4633 72.7053 58.1H95.5938C96.1449 58.1 96.6735 58.3186 97.0632 58.7078C97.4529 59.0969 97.6719 59.6247 97.6719 60.175C97.6719 61.2756 98.1098 62.3312 98.8892 63.1095C99.6687 63.8878 100.726 64.325 101.828 64.325C102.379 64.325 102.908 64.5436 103.298 64.9328C103.687 65.3219 103.906 65.8497 103.906 66.4V83C103.906 83.5503 103.687 84.0781 103.298 84.4672C102.908 84.8564 102.379 85.075 101.828 85.075C100.726 85.075 99.6687 85.5122 98.8892 86.2905C98.1098 87.0688 97.6719 88.1244 97.6719 89.225C97.6719 89.7753 97.4529 90.3031 97.0632 90.6922C96.6735 91.0814 96.1449 91.3 95.5938 91.3H72.6803C69.1035 93.9933 64.7455 95.4501 60.2656 95.4501C55.7857 95.4501 51.4277 93.9933 47.8509 91.3H24.9375C24.3863 91.3 23.8578 91.0814 23.468 90.6922C23.0783 90.3031 22.8594 89.7753 22.8594 89.225C22.8594 88.1244 22.4215 87.0688 21.642 86.2905C20.8626 85.5122 19.8054 85.075 18.7031 85.075C18.152 85.075 17.6234 84.8564 17.2337 84.4672C16.8439 84.0781 16.625 83.5503 16.625 83V66.4C16.625 65.8497 16.8439 65.3219 17.2337 64.9328C17.6234 64.5436 18.152 64.325 18.7031 64.325C19.8054 64.325 20.8626 63.8878 21.642 63.1095C22.4215 62.3312 22.8594 61.2756 22.8594 60.175C22.8594 59.6247 23.0783 59.0969 23.468 58.7078C23.8578 58.3186 24.3863 58.1 24.9375 58.1H47.8509C50.1942 56.3393 52.8862 55.0972 55.7478 54.4563L53.1709 51.875H12.4688V97.525H82.9567L83.1624 97.2677Z" fill="#A1FE04"/>
<path d="M56.5913 35.0467L64.4217 43.9817V40.1533L58.1935 32.3804L56.5913 35.0467Z" fill="#A1FE04"/>
<path d="M43.6406 42.8695V47.725H47.7969V46.509L44.5321 43.2513L43.6406 42.8695Z" fill="#A1FE04"/>
</svg>
