<svg width="62" height="62" viewBox="0 0 62 62" fill="none" xmlns="http://www.w3.org/2000/svg">
<circle cx="30.9681" cy="30.9819" r="29.8104" stroke="#84868A"/>
<path d="M31.1512 16.2678L36.2702 18.9432V18.0163L30.9616 15.2426L25.6529 18.0163V18.9432C27.4225 18.0163 29.192 17.0964 30.9616 16.1696L31.1512 16.2678ZM34.8027 40.9499V39.9949C34.8027 38.7941 33.8196 37.811 32.6188 37.811H29.3114C28.1107 37.811 27.1206 38.7941 27.1206 39.9949V40.9569H34.8029L34.8027 40.9499ZM35.6242 39.9949V40.9569H36.2352V40.1283C36.2352 38.7309 37.2884 37.5583 38.6577 37.3898C38.6226 37.3546 38.5945 37.3195 38.5594 37.2844H33.8968C34.929 37.7619 35.6242 38.8152 35.6242 39.9949ZM35.6242 41.7715H14.9657V44.2011H46.9647V41.7715H35.6242ZM26.2991 40.9499V39.9949C26.2991 38.8152 26.9942 37.7689 28.0265 37.2774H23.3639C23.3288 37.3125 23.3007 37.3476 23.2656 37.3827C24.6348 37.5513 25.6881 38.724 25.6881 40.1213V40.9499L26.2991 40.9499ZM28.6093 36.4558C28.3775 36.0485 28.2371 35.5851 28.2371 35.0795C28.2371 34.4686 28.4337 33.9068 28.7778 33.4504V26.6528H22.5774V33.4433C23.6658 33.9981 24.2065 35.2691 23.8203 36.4558L28.6093 36.4558ZM29.5994 32.7272C30.442 32.2356 31.4883 32.2356 32.3309 32.7272V26.6532H29.5994V32.7272ZM33.1525 33.4574C33.7985 34.3352 33.8687 35.5149 33.321 36.4558H38.11C37.7238 35.2691 38.2715 33.9981 39.36 33.4434V26.6529H33.1596V33.4569L33.1525 33.4574ZM29.6134 36.4278C30.8142 37.6285 32.8646 36.7718 32.8646 35.0795C32.8646 33.4013 30.8142 32.5306 29.6134 33.7313C28.8762 34.4757 28.8762 35.6834 29.6134 36.4278ZM24.8736 40.9499V40.1214C24.8736 39.054 23.9959 38.1833 22.9285 38.1833H19.9371C18.8698 38.1833 17.992 39.061 17.992 40.1214V40.9499H24.8736ZM17.1772 40.9499V40.1214C17.1772 38.724 18.2305 37.5513 19.5998 37.3828C19.5647 37.3477 19.5366 37.3126 19.5015 37.2775H16.3626V40.957H17.1772L17.1772 40.9499ZM19.0169 35.0164C19.34 33.8297 20.4986 33.0362 21.7485 33.1906V26.653H19.0169V35.0164ZM20.2458 36.8702C21.3132 37.9375 23.1178 37.1651 23.1178 35.6764C23.1178 34.1807 21.2991 33.4224 20.2458 34.4827C19.67 35.0585 19.5858 35.9643 20.0492 36.6314L20.2458 36.8702ZM43.9238 40.9499V40.1214C43.9238 39.054 43.046 38.1833 41.9857 38.1833H38.9943C37.9269 38.1833 37.0562 39.061 37.0562 40.1214V40.9499H43.9238ZM44.7453 40.1214V40.9499H45.5599V37.2705H42.4211C42.393 37.3056 42.3579 37.3407 42.3228 37.3758C43.692 37.5513 44.7453 38.724 44.7453 40.1214ZM40.174 33.1909C41.424 33.0294 42.5826 33.8229 42.9056 35.0166V26.6532H40.174V33.1909ZM39.2963 36.8704C40.0476 37.6217 41.2976 37.4883 41.8734 36.6386C42.6528 35.4941 41.8242 33.9914 40.49 33.9914C39.0013 33.9914 38.236 35.803 39.2963 36.8704ZM43.7272 26.6534V36.4563H46.3815V40.9573H47.7859V45.0301H14.1504V40.9573H15.5548V36.4563H18.2091V26.6534H14.7332V23.634H16.6994L24.8452 19.3787V17.5249C26.8886 16.4576 28.9249 15.3902 30.9683 14.3229L37.0845 17.5249V19.3717L45.2303 23.6341H47.1965V26.6535L43.7272 26.6534ZM15.5481 24.4485V25.8319H46.3678V24.4485H15.5481ZM25.4421 19.9755C25.4351 19.9825 25.4281 19.9825 25.421 19.9825L18.4552 23.634H43.4602L30.9609 17.0893L25.4421 19.9755Z" fill="url(#paint0_linear_114_582)"/>
<defs>
<linearGradient id="paint0_linear_114_582" x1="47.4252" y1="43.7163" x2="16.814" y2="21.4882" gradientUnits="userSpaceOnUse">
<stop stop-color="#A1FE04"/>
<stop offset="1" stop-color="#00A3FF"/>
</linearGradient>
</defs>
</svg>
