<svg width="62" height="62" viewBox="0 0 62 62" fill="none" xmlns="http://www.w3.org/2000/svg">
<circle cx="30.9681" cy="30.9385" r="29.8104" stroke="white" stroke-opacity="0.51"/>
<path d="M30.9683 15.7508C27.163 15.7508 24.0671 18.8468 24.0671 22.6521V26.2973H22.3304C20.7959 26.2973 19.5474 27.5456 19.5474 29.0803V43.343C19.5474 44.8777 20.7959 46.126 22.3304 46.126H39.606C41.1405 46.126 42.389 44.8777 42.389 43.343V29.0803C42.389 27.5456 41.1405 26.2973 39.606 26.2973H37.8692L37.869 22.6518C37.869 18.8467 34.7733 15.7506 30.9678 15.7506L30.9683 15.7508ZM25.8165 22.6521C25.8165 19.8113 28.1276 17.5003 30.9683 17.5003C33.8091 17.5003 36.1201 19.8111 36.1201 22.6521V26.2973L25.8165 26.2976V22.6521ZM40.6399 29.0805V43.3432C40.6399 43.9133 40.1762 44.3769 39.6062 44.3769L22.3305 44.3767C21.7605 44.3767 21.2968 43.913 21.2968 43.343V29.0803C21.2968 28.5103 21.7605 28.0466 22.3305 28.0466H39.6062C40.176 28.0466 40.6397 28.5103 40.6397 29.0803L40.6399 29.0805Z" fill="url(#paint0_linear_114_576)"/>
<path d="M30.9687 32.3236C29.6555 32.3236 28.5874 33.3917 28.5874 34.7047C28.5874 35.7092 29.2125 36.5704 30.094 36.9196V39.2247C30.094 39.7078 30.4857 40.0994 30.9687 40.0994C31.4518 40.0994 31.8434 39.7077 31.8434 39.2247V36.9196C32.7249 36.5704 33.35 35.709 33.35 34.7047C33.35 33.3919 32.2819 32.3236 30.9687 32.3236ZM30.9687 34.0731C31.3173 34.0731 31.6005 34.3563 31.6005 34.7049C31.6005 35.0535 31.3171 35.337 30.9687 35.337C30.6201 35.337 30.3369 35.0533 30.3369 34.7049C30.3369 34.3563 30.6201 34.0731 30.9687 34.0731Z" fill="url(#paint1_linear_114_576)"/>
<defs>
<linearGradient id="paint0_linear_114_576" x1="44.2117" y1="44.4692" x2="20.9973" y2="23.4473" gradientUnits="userSpaceOnUse">
<stop stop-color="#A1FE04"/>
<stop offset="1" stop-color="#00A3FF"/>
</linearGradient>
<linearGradient id="paint1_linear_114_576" x1="33.7301" y1="39.6753" x2="28.0245" y2="35.4669" gradientUnits="userSpaceOnUse">
<stop stop-color="#A1FE04"/>
<stop offset="1" stop-color="#00A3FF"/>
</linearGradient>
</defs>
</svg>
