<svg width="61" height="62" viewBox="0 0 61 62" fill="none" xmlns="http://www.w3.org/2000/svg">
<circle cx="30.4681" cy="30.9385" r="29.8104" stroke="white" stroke-opacity="0.51"/>
<path d="M45.0467 20.3531C44.6445 19.8972 44.1765 19.501 43.6594 19.1662C43.6172 19.1387 43.578 19.1074 43.5352 19.0812C43.5088 19.0648 43.4797 19.0519 43.453 19.0358C43.2884 18.9373 43.1206 18.8421 42.9466 18.7565C42.0115 18.2994 41.0142 18.0673 39.9811 18.0673H39.9806C37.3768 18.0673 35.0482 19.5202 33.9039 21.8584C33.1114 23.4799 32.9968 25.3134 33.5821 27.0215C34.1684 28.7303 35.3841 30.1078 37.0048 30.9008C37.9393 31.3577 38.9371 31.5896 39.9705 31.5896C40.1334 31.5896 40.2952 31.5836 40.4557 31.5727C42.8621 31.4044 44.9757 29.9906 46.0488 27.7992C46.842 26.1777 46.9561 24.3438 46.3703 22.6355C46.077 21.7819 45.6269 21.01 45.0467 20.3531ZM45.5716 26.9064C45.5023 27.0908 45.4243 27.2726 45.3366 27.4518C44.3261 29.5169 42.27 30.7995 39.9702 30.7995C39.0603 30.7995 38.1793 30.5946 37.3524 30.1906C36.9943 30.0151 36.659 29.8081 36.3491 29.5717C35.419 28.8635 34.7186 27.8965 34.3309 26.7656C34.3224 26.7399 34.3172 26.714 34.3084 26.6883C33.8206 25.2017 33.9269 23.6137 34.6152 22.2066C35.4356 20.5289 36.9463 19.3677 38.7177 18.9909C39.1267 18.9041 39.5491 18.859 39.9803 18.859C40.8926 18.859 41.7732 19.0638 42.5981 19.4678C44.0308 20.1682 45.1041 21.3841 45.6214 22.8923C46.0747 24.2119 46.054 25.6169 45.5717 26.9064L45.5716 26.9064Z" fill="url(#paint0_linear_114_569)"/>
<path d="M48.5304 21.8944C47.7475 19.6096 46.1211 17.7661 43.9504 16.704C42.7014 16.0925 41.3661 15.7823 39.9825 15.7823C36.4976 15.7823 33.3819 17.7261 31.8525 20.8547C30.7911 23.0231 30.6376 25.4767 31.4212 27.7626C32.0086 29.4759 33.0811 30.9407 34.5233 32.027C32.9104 32.6281 30.8699 33.3334 29.8459 33.6801L29.7191 33.7459C29.556 33.8585 29.3649 33.9912 29.1662 34.1307C29.2819 33.5136 29.2881 32.9794 29.1849 32.5386C28.8693 31.1966 28.4819 29.9862 26.9281 28.762C26.8226 28.6787 26.6195 28.5623 26.3102 28.407C26.8075 27.2575 27.8442 24.0388 25.4915 21.1373C24.5756 20.0074 23.4145 19.2246 22.0383 18.8076L22.039 18.8053L21.8948 18.7656C21.8834 18.7622 21.8718 18.7594 21.8604 18.756L21.6812 18.7065L21.6809 18.7091C21.0482 18.5514 20.3745 18.4715 19.6757 18.4715C18.4541 18.4715 17.2047 18.7246 16.3336 19.1486C15.6869 19.4639 14.4537 20.1509 13.4667 21.208C12.0409 22.7348 11.5846 24.5355 12.147 26.4155C13.1757 29.8516 13.5374 30.5754 13.6912 30.8842L13.7203 30.9425C13.9329 31.3911 14.2656 32.286 14.6222 33.2436C15.2093 34.821 15.8163 36.4526 16.2582 37.1406C17.2887 38.7488 21.5808 43.8241 27.5819 45.9769C27.7974 46.0549 28.0303 46.0944 28.2746 46.0944C29.1842 46.0944 30.0081 45.5402 30.2474 45.3278L30.3771 45.2153C32.9194 43.0347 39.0262 37.5739 40.8073 33.9805L40.8856 33.8234C44.0183 33.5119 46.7097 31.6439 48.0989 28.8042C49.1607 26.633 49.3135 24.1793 48.5298 21.8943L48.5304 21.8944ZM39.4809 33.8859C39.4457 33.9474 39.4081 34.0093 39.3705 34.0713C39.3422 34.119 39.3145 34.1662 39.2846 34.2145C39.246 34.277 39.2048 34.3402 39.1638 34.4038C39.1322 34.4528 39.1011 34.5018 39.0679 34.5513C39.0259 34.6148 38.9815 34.6789 38.9374 34.7432C38.9022 34.7945 38.8674 34.8454 38.8311 34.8972C38.7862 34.9613 38.7396 35.0256 38.6929 35.0899C38.6543 35.1433 38.6164 35.1962 38.577 35.2502C38.5293 35.3142 38.4808 35.3785 38.4315 35.4431C38.3895 35.4986 38.3475 35.5538 38.3044 35.6093C38.2557 35.6726 38.2057 35.7361 38.1559 35.7996C38.1097 35.858 38.0635 35.9163 38.0163 35.9752C37.9668 36.0369 37.9163 36.0986 37.8662 36.1603C37.8159 36.222 37.7651 36.2838 37.7135 36.3457C37.6639 36.4056 37.6131 36.4655 37.5628 36.5252C37.5081 36.5898 37.4531 36.6548 37.3974 36.7197C37.3476 36.7778 37.297 36.8356 37.2467 36.8939C37.1886 36.9608 37.1308 37.0275 37.0712 37.0946C37.0203 37.1522 36.969 37.2105 36.9169 37.2681C36.8562 37.3366 36.795 37.4045 36.7333 37.4732C36.683 37.5287 36.6324 37.5845 36.5816 37.6397C36.517 37.7102 36.4522 37.7813 36.3868 37.8521C36.3365 37.9063 36.286 37.961 36.2357 38.0152C36.168 38.087 36.1008 38.1594 36.0326 38.2312C35.9828 38.2836 35.9333 38.3357 35.884 38.3883C35.8138 38.462 35.7432 38.5356 35.6724 38.6095C35.6229 38.6609 35.5736 38.7117 35.5244 38.763C35.4523 38.8369 35.3797 38.9114 35.3073 38.9858C35.2586 39.0353 35.2104 39.0851 35.1613 39.1341C35.0869 39.2096 35.0122 39.285 34.9373 39.3602C34.8904 39.4074 34.8432 39.4546 34.7965 39.5015C34.7187 39.5793 34.6406 39.6566 34.5631 39.7336C34.5185 39.778 34.4739 39.8218 34.4293 39.8656C34.3505 39.9434 34.2716 40.0207 34.1928 40.0977C34.148 40.1413 34.1034 40.1846 34.0585 40.2287C33.9797 40.3049 33.9008 40.3811 33.8225 40.4566C33.7782 40.4994 33.7341 40.5417 33.6903 40.5844C33.613 40.6581 33.5362 40.7317 33.4595 40.8046C33.4125 40.8492 33.3659 40.8938 33.3195 40.9381C33.2458 41.0082 33.1722 41.0771 33.0985 41.1464C33.0508 41.191 33.0034 41.2358 32.9562 41.2802C32.8861 41.3455 32.8172 41.4103 32.7477 41.4747C32.6961 41.5226 32.6447 41.5706 32.5936 41.6178C32.5296 41.6769 32.4668 41.7353 32.4036 41.7936C32.3486 41.8444 32.2931 41.895 32.2389 41.9453C32.1813 41.9985 32.1243 42.0498 32.0675 42.1022C32.0094 42.1553 31.9511 42.2085 31.8935 42.2609C31.8458 42.3039 31.7991 42.3465 31.7519 42.3892C31.6842 42.4507 31.6166 42.5124 31.5502 42.5721C31.5209 42.598 31.4926 42.6237 31.4638 42.6498C31.3824 42.723 31.301 42.7958 31.2221 42.8666C31.2113 42.8762 31.2009 42.8856 31.1902 42.8952C30.5754 43.4446 30.0267 43.922 29.5895 44.297L29.4456 44.4214C29.2366 44.6069 28.7193 44.882 28.2712 44.882C28.1685 44.882 28.0752 44.8672 27.9935 44.8374C27.5768 44.6883 27.1707 44.5247 26.7752 44.3504C21.5117 42.0259 18.1301 37.6636 17.4198 36.6871C17.3316 36.5655 17.2823 36.4934 17.2785 36.4871C16.9053 35.906 16.2669 34.1897 15.7423 32.7793C15.3699 31.7781 15.0478 30.9136 14.814 30.4209L14.7756 30.3431C14.6472 30.0866 14.3067 29.4041 13.3076 26.0673C12.9156 24.7588 13.1593 23.5364 14.0218 22.4263C14.1245 22.2943 14.2316 22.1631 14.3519 22.0342C14.4237 21.9572 14.4992 21.8856 14.5739 21.813C14.9434 21.4539 15.3404 21.1461 15.7149 20.8963C16.1643 20.5968 16.5789 20.3761 16.8644 20.2372C17.39 19.9815 18.4462 19.6825 19.6917 19.6825C20.3392 19.6825 20.9607 19.7637 21.5385 19.9226C22.745 20.2561 23.7584 20.9215 24.5514 21.8996C26.4102 24.1921 25.7338 26.6667 25.2723 27.7714L23.2346 27.0484L23.2344 27.0492L23.1589 27.2447L22.8021 28.1679L22.8018 28.1689L22.9688 28.2389C24.3481 28.8167 25.9672 29.5466 26.1788 29.7136C27.4305 30.6996 27.7256 31.6211 28.0057 32.8155C28.1838 33.574 27.7723 34.7285 27.5957 35.2237C27.493 35.5129 27.3382 35.95 27.7982 36.22L28.2284 36.4119L28.4823 36.1555L28.5492 36.0878C28.5585 36.0784 28.5801 36.0606 28.6013 36.0432C28.808 35.8723 29.5343 35.3479 30.3385 34.7912C30.7948 34.637 33.841 33.6023 35.7923 32.8407C35.806 32.8485 35.8203 32.856 35.834 32.8638C35.8887 32.8949 35.9437 32.9265 36.001 32.9545C36.0754 32.9908 36.1512 33.0233 36.2264 33.0572C36.2935 33.0881 36.3602 33.1205 36.4281 33.1495C36.4966 33.1786 36.5653 33.2043 36.634 33.232C36.7131 33.2636 36.7919 33.296 36.872 33.3253C36.9421 33.3505 37.0118 33.3733 37.0818 33.3972C37.1614 33.4239 37.2405 33.4514 37.3204 33.476C37.3933 33.4986 37.4669 33.5183 37.54 33.5388C37.6178 33.5608 37.6954 33.5823 37.7734 33.602C37.8497 33.6215 37.9262 33.6383 38.0029 33.6554C38.0786 33.6726 38.1549 33.6892 38.2311 33.7042C38.3107 33.7198 38.3906 33.7335 38.471 33.747C38.5446 33.7592 38.619 33.7711 38.6937 33.7815C38.7767 33.7934 38.8592 33.804 38.9429 33.8134C39.0155 33.8217 39.0884 33.8287 39.1613 33.8354C39.2463 33.8432 39.3316 33.8499 39.4169 33.8551C39.4436 33.8567 39.4709 33.86 39.4976 33.8613C39.4906 33.8683 39.4862 33.8769 39.481 33.8857L39.4809 33.8859ZM47.0115 28.271C46.5144 29.287 45.8246 30.1591 44.9966 30.852C43.6166 32.0067 41.8551 32.6643 39.9683 32.6643C38.9217 32.6643 37.9055 32.4584 36.9416 32.0521C36.8042 31.994 36.6675 31.932 36.5319 31.8654C34.6527 30.9464 33.2441 29.3498 32.5658 27.3702C31.8874 25.3904 32.0194 23.2653 32.9387 21.3866C34.2648 18.6765 36.9637 16.9928 39.982 16.9928C41.1779 16.9928 42.3337 17.2614 43.4176 17.7912C43.6525 17.906 43.8799 18.0318 44.0998 18.1669C45.6381 19.1157 46.7909 20.5544 47.3853 22.2858C48.0637 24.2662 47.9311 26.3915 47.0116 28.271L47.0115 28.271Z" fill="url(#paint1_linear_114_569)"/>
<path d="M41.839 24.1887C41.6676 23.6916 41.3134 23.2904 40.8412 23.0596C40.5692 22.9266 40.278 22.8584 39.9769 22.8584C39.2179 22.8584 38.5393 23.2813 38.2066 23.9626C38.0909 24.1985 38.025 24.4503 38.0095 24.7053C37.9939 24.9602 38.0284 25.2182 38.1135 25.4673C38.2844 25.9655 38.6383 26.3666 39.1106 26.5974C39.382 26.7302 39.673 26.7978 39.9746 26.7978C40.7334 26.7978 41.4117 26.3749 41.7449 25.6937C41.9309 25.3146 41.9824 24.8957 41.9093 24.4871C41.8917 24.3873 41.8725 24.287 41.839 24.1887ZM39.9746 26.0073C39.7943 26.0073 39.6206 25.9668 39.4578 25.8869C39.4056 25.8618 39.359 25.8294 39.312 25.7975C39.2949 25.7855 39.2752 25.777 39.2589 25.7643C39.2262 25.7394 39.199 25.7088 39.1694 25.6805C39.1429 25.6554 39.1136 25.6325 39.0895 25.6051C39.0623 25.5742 39.0408 25.5382 39.0169 25.5042C38.997 25.4759 38.9741 25.4495 38.9568 25.4194C38.9189 25.3535 38.8867 25.284 38.8616 25.2104C38.8367 25.1373 38.8193 25.0623 38.8084 24.9874C38.8017 24.9405 38.8027 24.8925 38.8022 24.8445C38.802 24.8162 38.7973 24.7885 38.7994 24.7602C38.8027 24.7001 38.8141 24.6399 38.8268 24.58C38.8305 24.5645 38.8305 24.5481 38.8346 24.5323C38.8541 24.4568 38.881 24.3824 38.9168 24.3101C39.1157 23.9027 39.5215 23.6493 39.9764 23.6493C40.1558 23.6493 40.3298 23.6898 40.494 23.7697C40.7769 23.9079 40.988 24.1477 41.0899 24.4462C41.1412 24.5945 41.1617 24.7488 41.1526 24.9013C41.1433 25.0538 41.1036 25.2042 41.0344 25.3455C40.8352 25.7542 40.4291 26.0073 39.9746 26.0073Z" fill="url(#paint2_linear_114_569)"/>
<defs>
<linearGradient id="paint0_linear_114_569" x1="46.1526" y1="24.0046" x2="33.8124" y2="23.0968" gradientUnits="userSpaceOnUse">
<stop stop-color="#A1FE04"/>
<stop offset="1" stop-color="#0057FF"/>
</linearGradient>
<linearGradient id="paint1_linear_114_569" x1="47.4133" y1="29.0916" x2="13.647" y2="26.0516" gradientUnits="userSpaceOnUse">
<stop stop-color="#A1FE04"/>
<stop offset="1" stop-color="#0057FF"/>
</linearGradient>
<linearGradient id="paint2_linear_114_569" x1="41.7705" y1="24.5881" x2="38.1801" y2="24.3244" gradientUnits="userSpaceOnUse">
<stop stop-color="#A1FE04"/>
<stop offset="1" stop-color="#0057FF"/>
</linearGradient>
</defs>
</svg>
