<svg width="125" height="156" viewBox="0 0 125 156" fill="none" xmlns="http://www.w3.org/2000/svg">
<g clip-path="url(#clip0_445_2606)">
<path d="M79.1016 89.2125V96.486H119.141V89.232H79.1016V89.2125Z" fill="#A1FE04"/>
<path d="M44.6484 51.675H15.625V44.3625H43.2031C43.4528 46.84 43.9367 49.2885 44.6484 51.675Z" fill="#A1FE04"/>
<path d="M49.8047 62.8875H7.8125V55.575H45.9961C47.0221 58.1314 48.2978 60.5807 49.8047 62.8875Z" fill="#A1FE04"/>
<path d="M42.9687 39.975C42.959 40.1374 42.959 40.3002 42.9687 40.4625H7.8125V33.15H43.5352C43.1583 35.4055 42.9689 37.6883 42.9687 39.975Z" fill="#A1FE04"/>
<path d="M75.1953 100.444L5.87891 100.425L5.85938 107.718L75.1758 107.737L75.1953 100.444Z" fill="#A1FE04"/>
<path d="M75.1953 80.73V85.3125H5.85938V78H67.3242C69.8429 79.1876 72.4816 80.1028 75.1953 80.73Z" fill="#A1FE04"/>
<path d="M75.1758 96.525V89.232H5.85938V96.525H75.1758Z" fill="#A1FE04"/>
<path d="M60.5469 74.1H9.76562V66.7875H52.7344C55.0145 69.5486 57.6401 72.0062 60.5469 74.1Z" fill="#A1FE04"/>
<path d="M5.85938 118.931L75.1758 118.95L75.1953 111.657L5.87891 111.638L5.85938 118.931Z" fill="#A1FE04"/>
<path d="M79.1016 107.718H119.141V100.444H79.1016V107.718Z" fill="#A1FE04"/>
<path d="M79.1016 111.657V118.95H119.141V111.657H79.1016Z" fill="#A1FE04"/>
<path d="M119.141 78V85.293H79.1016V81.393C87.0877 82.5057 95.2258 81.2937 102.539 77.9025L119.141 78Z" fill="#A1FE04"/>
<path d="M73.8086 111.15C74.1578 111.496 74.6252 111.698 75.1172 111.715C74.8601 111.717 74.6053 111.668 74.3674 111.571C74.1294 111.474 73.913 111.331 73.7305 111.15H73.8086Z" fill="#A1FE04"/>
<path d="M84.9609 17.55C80.5186 17.55 76.176 18.8652 72.4823 21.3293C68.7886 23.7934 65.9098 27.2957 64.2097 31.3933C62.5097 35.4909 62.0649 39.9999 62.9316 44.3499C63.7983 48.6999 65.9374 52.6957 69.0787 55.8319C72.2199 58.9681 76.222 61.1038 80.579 61.9691C84.936 62.8344 89.4522 62.3903 93.5564 60.693C97.6606 58.9957 101.168 56.1214 103.637 52.4337C106.105 48.7459 107.422 44.4102 107.422 39.975C107.417 34.0291 105.049 28.3282 100.838 24.1238C96.6264 19.9194 90.9164 17.5552 84.9609 17.55ZM91.7969 52.4355C90.2905 53.7571 88.3531 54.4851 86.3477 54.483V56.433C86.3477 56.9502 86.1419 57.4462 85.7756 57.8118C85.4093 58.1775 84.9125 58.383 84.3945 58.383C83.8765 58.383 83.3798 58.1775 83.0135 57.8118C82.6472 57.4462 82.4414 56.9502 82.4414 56.433V54.054L77.0703 53.3715C76.5523 53.3068 76.0813 53.0394 75.7608 52.628C75.4403 52.2166 75.2966 51.6949 75.3613 51.1777C75.4261 50.6606 75.694 50.1903 76.106 49.8703C76.5181 49.5503 77.0406 49.4068 77.5586 49.4715L85.8594 50.5245C86.4493 50.604 87.0493 50.5613 87.622 50.3992C88.1947 50.2371 88.7278 49.9589 89.1881 49.5821C89.6485 49.2054 90.0262 48.738 90.2977 48.2091C90.5692 47.6802 90.7288 47.1012 90.7664 46.5081C90.8041 45.9149 90.719 45.3204 90.5164 44.7616C90.3139 44.2027 89.9983 43.6915 89.5893 43.2597C89.1802 42.8279 88.6865 42.4848 88.1389 42.2519C87.5913 42.0189 87.0015 41.901 86.4063 41.9055H83.5547C81.4701 41.911 79.4613 41.1258 77.9345 39.7088C76.4077 38.2918 75.477 36.3487 75.3306 34.2726C75.1842 32.1965 75.833 30.1424 77.1459 28.5257C78.4587 26.9091 80.3376 25.8507 82.4024 25.5645V23.4C82.4024 22.8828 82.6081 22.3868 82.9744 22.0211C83.3407 21.6554 83.8375 21.45 84.3555 21.45C84.8735 21.45 85.3703 21.6554 85.7365 22.0211C86.1028 22.3868 86.3086 22.8828 86.3086 23.4V25.74L92.9102 26.5785C93.4282 26.6431 93.8992 26.9106 94.2197 27.322C94.5402 27.7334 94.6839 28.2551 94.6191 28.7722C94.5544 29.2894 94.2865 29.7597 93.8745 30.0797C93.4624 30.3997 92.9399 30.5431 92.4219 30.4785L84.1211 29.4255C83.5312 29.346 82.9312 29.3887 82.3585 29.5508C81.7858 29.7129 81.2527 29.991 80.7924 30.3678C80.332 30.7446 79.9543 31.212 79.6828 31.7409C79.4112 32.2698 79.2517 32.8488 79.2141 33.4419C79.1764 34.035 79.2615 34.6296 79.464 35.1884C79.6666 35.7473 79.9822 36.2585 80.3912 36.6903C80.8002 37.1221 81.2939 37.4651 81.8416 37.6981C82.3892 37.9311 82.979 38.049 83.5742 38.0445H86.3867C88.0552 38.0551 89.6811 38.571 91.0495 39.5239C92.418 40.4769 93.4646 41.8221 94.0509 43.3816C94.6372 44.9412 94.7356 46.6417 94.3331 48.2583C93.9307 49.8749 93.0463 51.3315 91.7969 52.4355Z" fill="#A1FE04"/>
<path d="M84.961 1.95001C77.4283 1.95001 70.0647 4.18014 63.8015 8.35838C57.5383 12.5366 52.6568 18.4753 49.7741 25.4235C46.8915 32.3716 46.1373 40.0172 47.6068 47.3933C49.0764 54.7695 52.7037 61.5449 58.0301 66.8627C63.3565 72.1806 70.1428 75.8022 77.5308 77.2694C84.9187 78.7366 92.5765 77.9836 99.5358 75.1055C106.495 72.2275 112.443 67.3538 116.628 61.1006C120.813 54.8474 123.047 47.4956 123.047 39.975C123.037 29.8933 119.021 20.2275 111.88 13.0987C104.74 5.96985 95.0588 1.96034 84.961 1.95001ZM84.961 66.3C79.746 66.3 74.6482 64.7561 70.3121 61.8635C65.9761 58.9708 62.5965 54.8594 60.6008 50.0492C58.6052 45.2389 58.083 39.9458 59.1004 34.8393C60.1178 29.7327 62.629 25.042 66.3165 21.3604C70.0041 17.6788 74.7022 15.1716 79.817 14.1558C84.9317 13.1401 90.2333 13.6614 95.0512 15.6539C99.8692 17.6464 103.987 21.0205 106.884 25.3496C109.782 29.6788 111.328 34.7684 111.328 39.975C111.318 46.9537 108.537 53.6435 103.594 58.5782C98.6514 63.5129 91.9508 66.2897 84.961 66.3Z" fill="#A1FE04"/>
</g>
<defs>
<clipPath id="clip0_445_2606">
<rect width="125" height="156" fill="white"/>
</clipPath>
</defs>
</svg>
