<svg width="174" height="107" viewBox="0 0 174 107" fill="none" xmlns="http://www.w3.org/2000/svg">
<path fill-rule="evenodd" clip-rule="evenodd" d="M123.331 17.1357L125.245 18.2467C126.08 18.6634 126.672 19.4966 126.672 20.5035V41.891L137.53 48.1406L171.494 28.5586C160.15 22.0312 148.84 15.5038 137.495 8.97648L123.331 17.1357ZM121.661 24.8088L87.696 44.3909V61.4384C99.006 54.911 110.351 48.3837 121.661 41.891V24.8088ZM51.2256 20.5035C62.5704 13.9762 73.8804 7.4488 85.2252 0.92144C96.5352 7.4488 107.88 13.9762 119.19 20.5035L85.1904 40.0856L51.2256 20.5035ZM82.6848 44.3562L48.72 24.8088V41.8563L82.6848 61.4384V44.3562ZM36.4704 46.0227L2.4708 26.4754L36.4704 6.89328L50.634 15.0525L44.9616 18.3162C44.1612 18.7675 43.7088 19.6008 43.7088 20.4688V41.8563L36.4704 46.0227ZM31.494 48.9045L0 30.7806V47.8282L16.6692 57.4109C21.6108 54.5986 26.5524 51.7515 31.494 48.9045ZM82.6848 70.0837L48.72 89.631V106.679C60.03 100.151 71.3748 93.6238 82.6848 87.1312V70.0837ZM12.2496 65.7437C23.5944 59.2163 34.9044 52.689 46.2492 46.1616L80.2488 65.7437L46.2492 85.3258L12.2496 65.7437ZM43.7088 89.631L9.744 70.0837V87.1312C21.054 93.6586 32.3988 100.151 43.7088 106.679V89.631ZM142.506 50.9877L174 32.8638V49.9114L157.331 59.4941L142.506 50.9877ZM121.661 106.679V89.631L87.696 70.0837V87.1312C99.006 93.6586 110.351 100.186 121.661 106.679ZM160.637 70.0837L126.672 89.631V106.679C137.982 100.151 149.327 93.6586 160.637 87.1312V70.0837ZM124.166 85.3258L90.1668 65.7437C101.477 59.2163 112.822 52.689 124.132 46.1616C135.476 52.689 146.786 59.2163 158.131 65.7437L124.166 85.3258Z" fill="#A1FE04"/>
</svg>
