<svg width="92" height="126" viewBox="0 0 92 126" fill="none" xmlns="http://www.w3.org/2000/svg">
<path d="M40.0526 49.0091H26.0288C24.8192 49.0091 23.8364 49.9888 23.8364 51.1946C23.8364 52.4003 24.8192 53.38 26.0288 53.38H40.0526H54.0764C55.286 53.38 56.2688 52.4003 56.2688 51.1946C56.2688 49.9888 55.286 49.0091 54.0764 49.0091H40.0526Z" fill="#A1FE04"/>
<path d="M66.7522 44.9899C65.5804 43.5204 64.9 42.6286 64.1944 42.0886L62.0524 44.9397C62.5942 45.2286 63.0478 45.7812 63.9046 46.8614L71.4646 56.319C74.665 60.3257 74.9674 59.9866 68.4406 59.9866H40.0528H11.665C5.12562 59.9866 5.44062 60.3257 8.64102 56.319L16.201 46.8614C18.0154 44.6006 17.9902 44.6382 20.9008 44.6382H26.4196L28.9648 41.2596H20.8126C16.1632 41.2596 16.264 41.3601 13.3534 44.9899L3.22302 57.6755C0.791217 60.7276 0.753418 61.2802 0.753418 65.1864V68.3766V121.87C0.753418 123.93 2.44182 125.6 4.49562 125.6H40.0402H75.61C77.6764 125.6 79.3522 123.917 79.3522 121.87V68.3641V65.1864C79.3522 61.2677 79.3144 60.7276 76.8826 57.6755L66.7522 44.9899Z" fill="#A1FE04"/>
<path d="M80.4483 0L76.0635 3.27816L86.9121 16.642L91.2465 12.8112L80.4483 0Z" fill="#A1FE04"/>
<path d="M57.9321 22.5954C58.8141 22.3819 59.6583 22.1433 60.4647 21.8418L51.1155 14.8585L26.8857 47.1377H54.0891C55.2735 47.1377 56.3319 47.6401 57.0879 48.4565L61.9137 42.0383L63.8541 39.451L71.1117 29.7798L69.1587 28.3228C68.2011 28.4358 67.2183 28.4484 66.2103 28.3479C64.0557 28.1344 61.8003 29.089 59.9481 30.1063C57.5793 31.4126 55.3869 30.7469 54.3411 28.2349C53.9505 27.2803 53.8245 26.2378 54.2277 25.2582C54.8325 23.7258 56.4327 22.9597 57.9321 22.5954Z" fill="#A1FE04"/>
<path d="M76.1069 4.75003L74.7163 5.87222L83.9444 17.2348L85.335 16.1126L76.1069 4.75003Z" fill="#A1FE04"/>
<path d="M65.2275 7.62391C62.0145 7.51087 61.2081 7.74951 59.3055 9.21903C57.4029 10.676 55.1979 13.1378 53.6733 15.3106L58.9527 19.2545C59.3685 17.7975 60.8049 16.9183 63.0981 16.5415C65.6811 16.1019 67.3695 18.0487 65.8953 19.581C63.5643 21.9926 60.8679 22.9094 58.1715 23.5751C55.5759 24.2157 54.3789 25.7103 55.2609 27.8581C56.0043 29.6793 57.4659 30.3324 59.4441 29.2397C61.7121 27.9962 64.0431 27.1422 66.2859 27.3682C68.9193 27.632 71.4141 27.1045 73.7703 25.5973C77.4999 23.2109 80.5113 20.3598 82.7037 17.0816L74.2617 6.69447C71.4393 8.11375 68.8311 7.74951 65.2275 7.62391Z" fill="#A1FE04"/>
</svg>
