<svg width="36" height="36" viewBox="0 0 36 36" fill="none" xmlns="http://www.w3.org/2000/svg">
<path d="M18 0C8.07158 0 0 8.07158 0 18C0 27.9284 8.07158 36 18 36C27.9284 36 36 27.9284 36 18C36 8.07158 27.9284 0 18 0ZM19.5537 26.9432V29.2168C19.5537 29.4442 19.3642 29.6716 19.0989 29.6716H16.9011C16.6737 29.6716 16.4463 29.4821 16.4463 29.2168V27.0189C14.2105 26.8674 12.3916 25.1242 12.1642 22.8884C12.1263 22.6232 12.3537 22.4337 12.6189 22.4337H14.8547C15.0442 22.4337 15.2337 22.5474 15.2716 22.7368C15.4232 23.4189 16.0295 23.9495 16.7495 23.9495H18.6821C19.8189 23.9495 20.88 23.1158 20.9937 21.9789C21.1453 20.6526 20.0842 19.5537 18.7958 19.5537H17.3558C14.5895 19.5537 12.1263 17.5453 11.8611 14.8168C11.5958 11.8989 13.68 9.43579 16.4084 9.05684V6.82105C16.4084 6.59368 16.5979 6.40421 16.8632 6.40421H19.0611C19.2884 6.40421 19.5158 6.59368 19.5158 6.82105V9.01895C21.7516 9.17053 23.5705 10.9137 23.7979 13.1495C23.8358 13.4147 23.6084 13.6042 23.3432 13.6042H21.1074C20.9179 13.6042 20.7284 13.4905 20.6905 13.2632C20.5389 12.5811 19.9326 12.0505 19.2126 12.0505H17.28C16.1432 12.0505 15.0821 12.8842 14.9684 14.0211C14.8168 15.3474 15.8779 16.4463 17.1663 16.4463H18.8337C21.9032 16.4463 24.4042 19.0989 24.1011 22.2442C23.8358 24.7074 21.9032 26.5263 19.5537 26.9432Z" fill="#A1FE04"/>
</svg>
