<svg width="32" height="40" viewBox="0 0 32 40" fill="none" xmlns="http://www.w3.org/2000/svg">
<path fill-rule="evenodd" clip-rule="evenodd" d="M18.9111 1.21631C18.9111 1.21631 17.8109 5.9962 20.5613 10.2682C23.3108 14.5403 32.7006 22.9586 19.4189 30.7836C19.4189 30.7836 22.2317 26.7862 20.8148 24.0578C19.3978 21.3295 16.3526 19.299 16.8595 15.027C16.8595 15.027 12.8419 16.6984 14.6179 24.269C14.6179 24.269 12.3552 23.4444 11.4028 21.2133C11.4028 21.2133 9.99641 25.591 12.5769 30.7097C12.5769 30.7097 -1.06386 24.2047 9.93305 11.5691C9.93305 11.5691 10.1654 15.6933 11.7945 16.8357C11.7945 16.8357 9.1084 5.66883 18.9111 1.21631Z" fill="#F8087B"/>
</svg>
