<svg width="57" height="55" viewBox="0 0 57 55" fill="none" xmlns="http://www.w3.org/2000/svg">
<path d="M13.0911 4.2631L13.0915 4.2627C14.121 3.13062 15.1061 2.15103 16.0323 1.22993L16.0653 1.19711C16.5198 0.777392 17.1393 0.537036 17.7765 0.560947C17.8993 0.587216 18.019 0.586963 18.0702 0.58667C21.8503 0.820106 22.7835 5.74966 19.4191 7.31252L19.4187 7.31269C14.1192 9.77978 9.37949 13.6583 6.1373 18.9087L6.13726 18.9087L6.13403 18.9141C3.61135 23.1165 2.13475 27.8058 1.82516 32.658C1.61057 36.0211 1.95674 39.3842 2.83978 42.6162C0.717751 38.163 0.231806 32.6859 1.3054 26.8706C2.69755 19.3297 6.70706 11.2678 13.0911 4.2631Z" stroke="#A1FE04"/>
<path d="M46.2081 8.32114L46.2162 8.32545L46.2242 8.32931C46.2241 8.32928 46.2241 8.3293 46.2243 8.32939C46.2251 8.3298 46.2289 8.33176 46.2366 8.33612C46.2466 8.34171 46.2578 8.34822 46.2731 8.35715L46.2745 8.35793C46.2882 8.36593 46.3057 8.3761 46.323 8.38582C46.337 8.39372 46.3548 8.4035 46.3742 8.41332C57.1221 14.3539 59.6693 28.2499 51.8221 37.5012L51.8221 37.5011L51.8177 37.5065C51.5429 37.8397 51.2675 38.1516 50.9857 38.4705L50.9856 38.4705L50.9797 38.4774C49.6764 40.0081 48.2811 41.4557 46.8009 42.8122C47.5032 41.89 48.1466 40.9227 48.7259 39.9146C51.0402 35.9097 52.281 31.3724 52.3287 26.7651L52.3287 26.7651V26.7599C52.3287 17.7891 48.7199 11.4823 42.9718 7.25184C42.9136 7.20738 42.9032 7.17123 42.9001 7.15225C42.8959 7.12578 42.9004 7.08699 42.925 7.04511C42.9496 7.00333 42.986 6.9727 43.0242 6.9576C43.0568 6.94471 43.1062 6.93647 43.1806 6.96354L43.1806 6.96354L43.1828 6.96433C44.2325 7.34071 45.2407 7.80713 46.2081 8.32114Z" stroke="#A1FE04"/>
<path d="M22.9089 6.98858L22.9096 6.98833C36.7113 2.16148 51.4029 11.8225 51.657 25.9918C51.657 26.1758 51.6563 26.3509 51.6368 26.5213L51.6339 26.547L51.6336 26.573C51.5877 31.0074 50.3934 35.354 48.164 39.234C45.9359 43.1117 42.7183 46.3686 38.8301 48.7347L38.8283 48.7358C33.3594 52.0941 27.0122 53.8411 20.5485 53.7739L20.5485 53.7738L20.5362 53.7739C18.9343 53.7965 17.3305 53.7514 15.7477 53.6611L15.7476 53.6611C11.1424 53.3995 7.06387 50.6405 5.25982 46.5499V46.5358L5.21821 46.4402C3.3296 42.1052 2.50078 37.4137 2.79988 32.7229C3.12239 28.0323 4.54951 23.4755 6.98962 19.4094C10.7384 13.3866 16.5397 9.20511 22.9089 6.98858ZM38.768 45.5199L38.7684 45.5197C48.4917 39.4802 49.7509 27.7603 45.0217 17.7536C40.0884 7.28997 26.5997 4.51002 16.1622 11.6933C6.83489 18.0975 3.70348 30.1425 9.96432 39.511L9.96485 39.5118C12.9663 43.9847 17.6932 47.1489 23.0881 48.2656C28.4806 49.3817 34.1146 48.4057 38.768 45.5199Z" stroke="#5CB300"/>
</svg>
