<svg width="47" height="47" viewBox="0 0 47 47" fill="none" xmlns="http://www.w3.org/2000/svg">
<path d="M30.3484 17.1899C30.343 17.1793 30.3339 17.171 30.3228 17.1665C29.0464 16.5809 27.6994 16.1632 26.3155 15.9241C26.3029 15.9218 26.2899 15.9235 26.2784 15.9289C26.2668 15.9344 26.2573 15.9434 26.2511 15.9546C26.0677 16.2875 25.9012 16.6295 25.7522 16.9791C24.2605 16.7527 22.7431 16.7527 21.2513 16.9791C21.1014 16.6286 20.9322 16.2865 20.7446 15.9546C20.7381 15.9436 20.7286 15.9349 20.7171 15.9294C20.7056 15.924 20.6927 15.9221 20.6802 15.9241C19.2961 16.1627 17.949 16.5804 16.6727 17.1665C16.6618 17.1712 16.6526 17.1791 16.6464 17.1892C14.094 21.0007 13.3949 24.7186 13.7379 28.3904C13.7388 28.3994 13.7416 28.4081 13.746 28.416C13.7504 28.4239 13.7563 28.4308 13.7635 28.4364C15.2497 29.5368 16.912 30.3768 18.6795 30.9204C18.6919 30.9241 18.7052 30.924 18.7176 30.9199C18.7299 30.9159 18.7407 30.9082 18.7486 30.8978C19.1282 30.3812 19.4646 29.8343 19.7543 29.2624C19.7583 29.2546 19.7605 29.246 19.7609 29.2372C19.7614 29.2284 19.7599 29.2196 19.7567 29.2114C19.7535 29.2033 19.7485 29.1959 19.7422 29.1897C19.7359 29.1836 19.7284 29.1788 19.7202 29.1758C19.1897 28.9728 18.6762 28.7282 18.1844 28.4441C18.1755 28.4388 18.168 28.4315 18.1625 28.4226C18.1571 28.4138 18.154 28.4038 18.1534 28.3934C18.1528 28.3831 18.1547 28.3727 18.159 28.3633C18.1634 28.3539 18.1699 28.3457 18.1782 28.3394C18.2817 28.2621 18.3834 28.1825 18.4832 28.1005C18.4919 28.0933 18.5025 28.0886 18.5138 28.0871C18.525 28.0856 18.5365 28.0873 18.5468 28.0919C21.7688 29.5623 25.257 29.5623 28.4408 28.0919C28.4512 28.087 28.4627 28.0851 28.4741 28.0865C28.4856 28.0878 28.4963 28.0924 28.5052 28.0997C28.6052 28.1821 28.7071 28.2621 28.811 28.3394C28.8193 28.3456 28.8259 28.3538 28.8303 28.3632C28.8347 28.3726 28.8367 28.3829 28.8362 28.3932C28.8357 28.4036 28.8326 28.4136 28.8272 28.4225C28.8219 28.4314 28.8145 28.4388 28.8056 28.4441C28.3149 28.7306 27.8009 28.9751 27.2691 29.175C27.2608 29.1782 27.2533 29.183 27.247 29.1893C27.2408 29.1955 27.2359 29.203 27.2328 29.2112C27.2296 29.2195 27.2282 29.2283 27.2287 29.2371C27.2292 29.246 27.2315 29.2546 27.2356 29.2624C27.5301 29.8311 27.866 30.3774 28.2405 30.8969C28.2481 30.9075 28.2589 30.9155 28.2713 30.9197C28.2837 30.9239 28.2971 30.9241 28.3096 30.9203C30.0803 30.3785 31.7455 29.5385 33.2336 28.4364C33.2408 28.4311 33.2468 28.4243 33.2513 28.4165C33.2557 28.4087 33.2584 28.4001 33.2592 28.3911C33.6698 24.1462 32.5717 20.4588 30.3484 17.1899ZM20.2354 26.1546C19.2654 26.1546 18.4661 25.2644 18.4661 24.1712C18.4661 23.0779 19.2499 22.1876 20.2354 22.1876C21.2287 22.1876 22.0203 23.0856 22.0048 24.1711C22.0048 25.2644 21.2209 26.1546 20.2354 26.1546ZM26.7772 26.1546C25.8072 26.1546 25.0079 25.2644 25.0079 24.1712C25.0079 23.0779 25.7917 22.1876 26.7772 22.1876C27.7705 22.1876 28.562 23.0856 28.5465 24.1711C28.5465 25.2644 27.7705 26.1546 26.7772 26.1546Z" fill="#767DF0"/>
<rect x="1.15649" y="1.4231" width="45" height="45" rx="7.5" stroke="#2B2B2B"/>
</svg>
