<svg width="47" height="47" viewBox="0 0 47 47" fill="none" xmlns="http://www.w3.org/2000/svg">
<path d="M31.8089 17.2621C31.7945 17.0461 31.6523 16.8597 31.4477 16.7889C31.2431 16.7181 31.016 16.7767 30.8713 16.9376C30.4991 17.3513 30.0287 17.6317 29.5513 17.7595C28.8873 17.1396 27.9951 16.7593 27.0147 16.7593C24.9106 16.7593 23.2063 18.4674 23.2063 20.5728V21.0464C19.985 20.7975 18.2623 18.3504 17.7975 17.1089C17.7223 16.9083 17.5354 16.7713 17.3214 16.76C17.1074 16.7488 16.9072 16.8655 16.8114 17.0572C15.6842 19.3152 15.5105 21.5052 16.3298 23.3701C17.0475 25.0037 18.4908 26.305 20.5364 27.1671C19.6067 27.826 18.042 28.6054 16.2179 28.6054C15.9807 28.6054 15.7715 28.7607 15.7026 28.9877C15.6338 29.2147 15.7217 29.46 15.9189 29.5917C17.668 30.7595 19.5011 30.7594 21.206 30.7593L21.2582 30.7593C26.4928 30.7593 30.7348 26.5095 30.7348 21.2689V20.7538C31.1262 20.356 31.4309 19.9488 31.6176 19.4224C31.826 18.835 31.868 18.1539 31.8089 17.2621Z" fill="#00A3FF"/>
<rect x="1.17944" y="1.25928" width="45" height="45" rx="7.5" stroke="#2B2B2B"/>
</svg>
